<svg width="160" height="27" viewBox="0 0 160 27" fill="none" xmlns="http://www.w3.org/2000/svg">
<path d="M8.016 5.416L7.504 4.36C11.0453 1.69333 13.776 0.359999 15.696 0.359999C17.616 0.359999 18.576 1.08533 18.576 2.536C18.576 3.432 18.2133 4.37067 17.488 5.352C16.784 6.33333 15.9093 7.21867 14.864 8.008C12.9013 9.45867 11.2373 10.504 9.872 11.144C12.0907 11.4853 13.712 11.944 14.736 12.52C15.76 13.0747 16.5067 13.9173 16.976 15.048H18.992V16.296L17.232 16.36C16.976 17.8533 16.56 19.0587 15.984 19.976C15.4293 20.8933 14.4907 21.8853 13.168 22.952C11.8453 24.0187 10.256 24.904 8.4 25.608C6.56533 26.3333 5.02933 26.696 3.792 26.696C2.55467 26.696 1.616 26.44 0.976 25.928C0.336 25.4373 0.0159999 24.7867 0.0159999 23.976C0.0159999 22.7387 0.741333 21.5013 2.192 20.264C3.664 19.0053 5.43467 17.96 7.504 17.128C9.59467 16.2747 11.664 15.6987 13.712 15.4C13.392 14.8667 12.9013 14.4293 12.24 14.088C11.6 13.7253 10.768 13.416 9.744 13.16C8.74133 12.8827 8.144 12.6587 7.952 12.488C7.76 12.3173 7.664 12.0827 7.664 11.784C7.664 11.464 7.792 11.176 8.048 10.92C8.32533 10.6427 8.83733 10.2907 9.584 9.864C10.3307 9.416 11.1093 8.91467 11.92 8.36C12.7307 7.784 13.5733 7.05867 14.448 6.184C15.3227 5.288 15.76 4.552 15.76 3.976C15.76 2.99467 15.344 2.504 14.512 2.504C13.616 2.504 12.5493 2.78133 11.312 3.336C10.096 3.89067 8.99733 4.584 8.016 5.416ZM10.896 22.632C11.9413 21.928 12.7733 21.1387 13.392 20.264C14.0107 19.3893 14.32 18.568 14.32 17.8C14.32 17.4587 14.2667 17.096 14.16 16.712C10.96 17.096 8.32533 17.9387 6.256 19.24C4.18667 20.52 3.152 21.7467 3.152 22.92C3.152 23.432 3.35467 23.8373 3.76 24.136C4.16533 24.456 4.72 24.616 5.424 24.616C7.152 24.616 8.976 23.9547 10.896 22.632ZM37.368 17.768L38.104 18.312C37.8053 18.952 37.2507 19.56 36.44 20.136C35.6507 20.712 34.9253 21 34.264 21C33.0053 21 32.376 20.3387 32.376 19.016C32.376 18.3973 32.536 17.6613 32.856 16.808L31.672 18.024C30.52 19.1973 29.5173 19.9867 28.664 20.392C27.832 20.7973 27.0107 21 26.2 21C25.3893 21 24.7707 20.776 24.344 20.328C23.9387 19.8587 23.736 19.2187 23.736 18.408C23.736 16.9147 24.312 15.4427 25.464 13.992C26.616 12.52 28.088 11.3253 29.88 10.408C31.672 9.49067 33.464 9.02133 35.256 9L35.32 10.056L33.976 10.344C32.0347 10.7707 30.3173 11.624 28.824 12.904C27.352 14.184 26.616 15.464 26.616 16.744C26.616 18.0027 27.128 18.632 28.152 18.632C29.112 18.632 30.296 17.96 31.704 16.616C33.112 15.272 34.2853 13.6933 35.224 11.88L36.568 12.68C35.2453 15.3467 34.584 17.0427 34.584 17.768C34.584 18.0667 34.68 18.3227 34.872 18.536C35.0853 18.728 35.288 18.824 35.48 18.824C35.6933 18.824 35.832 18.8133 35.896 18.792C35.96 18.7707 36.024 18.7493 36.088 18.728C36.152 18.6853 36.2267 18.632 36.312 18.568C36.4187 18.504 36.504 18.44 36.568 18.376C36.6533 18.312 36.7813 18.216 36.952 18.088C37.1227 17.96 37.2613 17.8533 37.368 17.768ZM58.8803 17.288L59.5523 17.832C59.1896 18.728 58.6136 19.4853 57.8243 20.104C57.0563 20.7227 56.3523 21.032 55.7123 21.032C55.0936 21.032 54.6029 20.8187 54.2403 20.392C53.8776 19.944 53.6963 19.368 53.6963 18.664C53.6963 17.96 53.8136 17.0533 54.0483 15.944C53.0456 17.5227 51.9683 18.76 50.8163 19.656C49.6643 20.552 48.6936 21 47.9043 21C46.7096 21 46.1123 20.2427 46.1123 18.728C46.1123 18.5787 46.2616 17.6613 46.5603 15.976C45.5576 17.5333 44.5443 18.7067 43.5203 19.496C42.5176 20.264 41.6109 20.648 40.8003 20.648C39.6056 20.648 39.0083 19.8907 39.0083 18.376L40.2243 17.224C40.2243 17.608 40.3629 17.9387 40.6403 18.216C40.9389 18.4933 41.2803 18.632 41.6643 18.632C42.3683 18.632 43.3176 18.0347 44.5123 16.84C45.7283 15.6453 46.8376 14.0773 47.8403 12.136C48.0536 11.7093 48.2989 11.208 48.5763 10.632C48.8749 10.0347 49.0883 9.608 49.2163 9.352C49.3443 9.096 49.4936 8.81867 49.6643 8.52C49.9416 8.05067 50.2296 7.816 50.5283 7.816C50.8269 7.816 51.0723 7.93333 51.2643 8.168C51.4563 8.40267 51.5523 8.68 51.5523 9C51.5523 9.29867 51.4563 9.65067 51.2643 10.056C51.0936 10.4613 50.8056 11.016 50.4003 11.72C49.9949 12.4027 49.6749 12.968 49.4403 13.416C48.8856 14.8667 48.6083 15.8587 48.6083 16.392C48.6083 16.9253 48.7469 17.3307 49.0243 17.608C49.3229 17.8853 49.6643 18.024 50.0483 18.024C50.7736 18.024 51.6376 17.4693 52.6403 16.36C53.6643 15.2293 54.7203 13.5547 55.8083 11.336C55.9363 11.0587 56.0856 10.7493 56.2563 10.408C56.4269 10.0453 56.5549 9.77867 56.6403 9.608C56.7256 9.416 56.8216 9.20267 56.9283 8.968C57.0563 8.73333 57.1523 8.56267 57.2163 8.456C57.3016 8.328 57.3869 8.21067 57.4722 8.104C57.6643 7.912 57.8776 7.816 58.1123 7.816C58.3683 7.816 58.5923 7.93333 58.7843 8.168C58.9763 8.40267 59.0723 8.68 59.0723 9C59.0723 9.29867 58.5389 10.6213 57.4722 12.968C56.4269 15.2933 55.9043 16.7013 55.9043 17.192C55.9043 17.6827 56.0003 18.0453 56.1923 18.28C56.4056 18.5147 56.6083 18.632 56.8003 18.632C57.0136 18.632 57.1736 18.6213 57.2803 18.6C57.3869 18.5787 57.4936 18.536 57.6003 18.472C57.7069 18.408 57.7923 18.3547 57.8563 18.312C57.9416 18.2693 58.0376 18.1947 58.1443 18.088L58.3683 17.864C58.4323 17.8 58.5176 17.704 58.6243 17.576C58.7523 17.4267 58.8376 17.3307 58.8803 17.288ZM70.5688 17.224L71.3048 17.8C70.6434 18.7173 69.7368 19.4853 68.5848 20.104C67.4328 20.7013 66.3128 21 65.2248 21C64.1368 21 63.2621 20.68 62.6008 20.04C61.9394 19.4 61.6088 18.5573 61.6088 17.512C61.6088 15.5493 62.6434 13.6187 64.7128 11.72C66.8034 9.82133 68.9154 8.872 71.0488 8.872C72.4568 8.872 73.1608 9.42667 73.1608 10.536C73.1608 11.688 72.4141 12.8507 70.9208 14.024C69.4488 15.1973 67.3688 16.264 64.6808 17.224C64.8728 17.7147 65.1714 18.0987 65.5768 18.376C65.9821 18.6533 66.3981 18.792 66.8248 18.792C67.7421 18.792 68.9901 18.2693 70.5688 17.224ZM64.5208 16.264C66.2488 15.6667 67.7314 14.92 68.9688 14.024C70.2061 13.128 70.8248 12.3067 70.8248 11.56C70.8248 11.2827 70.7181 11.0373 70.5048 10.824C70.2914 10.6107 70.0461 10.504 69.7688 10.504C68.7661 10.504 67.6781 11.1333 66.5048 12.392C65.3528 13.6293 64.6914 14.92 64.5208 16.264ZM94.7103 16.84L95.3823 17.48C94.1663 19.656 92.7689 20.744 91.1903 20.744C90.5503 20.744 90.0489 20.5733 89.6863 20.232C89.3449 19.8693 89.1743 19.4 89.1743 18.824C89.1743 18.2267 89.5263 17.2133 90.2303 15.784C90.9343 14.3547 91.3076 13.2667 91.3503 12.52C91.3716 12.1787 91.2649 11.9013 91.0303 11.688C90.8169 11.4747 90.5183 11.368 90.1343 11.368C89.7503 11.368 89.3556 11.464 88.9503 11.656C88.5663 11.8267 88.1823 12.1147 87.7983 12.52C87.4356 12.9253 87.0943 13.32 86.7743 13.704C86.4756 14.088 86.1343 14.632 85.7503 15.336C85.3876 16.04 85.0783 16.6267 84.8223 17.096C84.3743 17.9707 83.7343 19.2827 82.9023 21.032L80.9823 20.36C80.9823 20.296 81.3343 19.0907 82.0383 16.744C82.7423 14.3973 83.0943 13 83.0943 12.552C83.0943 12.104 82.9876 11.784 82.7743 11.592C82.5609 11.3787 82.2943 11.272 81.9743 11.272C81.0143 11.272 79.6809 12.4667 77.9743 14.856C76.2889 17.2453 75.2116 19.2827 74.7423 20.968L72.9183 20.36C73.0249 19.2293 73.5263 17.2027 74.4223 14.28C75.3183 11.336 76.0756 9.33067 76.6943 8.264L78.1343 8.776C77.4729 10.248 77.0143 11.496 76.7583 12.52C76.5023 13.5227 76.2783 14.6 76.0863 15.752C77.9209 13.128 79.4569 11.2933 80.6943 10.248C81.9316 9.18133 83.0516 8.648 84.0543 8.648C85.1423 8.648 85.6863 9.192 85.6863 10.28C85.6863 10.7067 85.4943 11.5493 85.1103 12.808C84.7476 14.0667 84.4596 15.0587 84.2463 15.784C87.1903 11.048 89.8249 8.68 92.1503 8.68C92.7263 8.68 93.1849 8.86133 93.5263 9.224C93.8676 9.56533 94.0383 10.088 94.0383 10.792C94.0383 11.4747 93.6329 12.616 92.8223 14.216C92.0329 15.816 91.6383 16.8293 91.6383 17.256C91.6383 17.6613 91.7236 17.96 91.8943 18.152C92.0649 18.344 92.2783 18.44 92.5343 18.44C93.0889 18.44 93.8143 17.9067 94.7103 16.84ZM118.492 5.256V6.792C117.532 7.34667 115.762 8.104 113.18 9.064C112.028 11.944 110.204 14.6213 107.708 17.096C105.212 19.5707 102.93 20.808 100.86 20.808C99.6869 20.808 98.7376 20.392 98.0123 19.56C97.2869 18.728 96.9243 17.5867 96.9243 16.136C96.9243 14.664 97.4149 12.904 98.3963 10.856C99.3776 8.78667 100.668 6.856 102.268 5.064C103.868 3.25067 105.5 1.91733 107.164 1.064C107.847 0.615999 108.914 0.391998 110.364 0.391998C111.452 0.391998 112.338 0.818665 113.02 1.672C113.724 2.504 114.076 3.496 114.076 4.648C114.076 5.77867 113.991 6.632 113.82 7.208C115.442 6.67467 116.999 6.024 118.492 5.256ZM105.788 4.136C105.084 4.86133 104.732 5.56533 104.732 6.248C104.732 6.90933 105.074 7.44267 105.756 7.848C106.439 8.232 107.292 8.424 108.316 8.424C109.362 8.424 110.268 8.328 111.036 8.136C111.164 7.496 111.228 6.87733 111.228 6.28C111.228 4.168 110.322 3.112 108.508 3.112C107.676 3.112 106.77 3.45333 105.788 4.136ZM106.204 16.232C108.295 14.1627 109.756 12.008 110.588 9.768C110.055 9.87467 109.372 9.928 108.54 9.928C104.956 9.928 102.93 9.128 102.46 7.528C100.668 10.024 99.7723 12.4773 99.7723 14.888C99.7723 15.848 99.9963 16.616 100.444 17.192C100.914 17.768 101.596 18.056 102.492 18.056C103.751 18.056 104.988 17.448 106.204 16.232ZM129.347 17.32L130.243 17.992C130.029 18.44 129.571 18.952 128.867 19.528C128.184 20.104 127.384 20.392 126.467 20.392C125.229 20.392 124.611 19.7627 124.611 18.504C124.611 17.7787 124.76 16.9787 125.059 16.104C125.379 15.208 125.688 14.3973 125.987 13.672C126.285 12.9253 126.467 12.456 126.531 12.264C126.019 12.9893 125.187 13.7467 124.035 14.536C122.904 15.304 121.869 15.688 120.931 15.688C119.544 15.688 118.851 14.8987 118.851 13.32C118.851 12.296 119.128 11.1653 119.683 9.928C120.259 8.69067 120.856 7.82667 121.475 7.336L122.883 7.848C121.88 9.704 121.379 11.08 121.379 11.976C121.379 12.872 121.795 13.32 122.627 13.32C123.587 13.32 124.685 12.7867 125.923 11.72C127.16 10.6533 128.035 9.32 128.547 7.72L130.211 8.648C127.907 12.7227 126.755 15.5493 126.755 17.128C126.755 17.8533 127.032 18.216 127.587 18.216C128.163 18.216 128.749 17.9173 129.347 17.32ZM142.66 17.448L143.46 18.152C142.223 20.1787 140.911 21.192 139.524 21.192C138.735 21.192 137.924 20.68 137.092 19.656C136.281 18.632 135.791 17.64 135.62 16.68C135.492 16.9147 135.129 17.5333 134.532 18.536C133.935 19.5387 133.508 20.36 133.252 21L131.332 20.328C131.78 17.704 132.324 15.2293 132.964 12.904C133.625 10.5787 134.244 8.94667 134.82 8.008L136.132 8.424C135.748 9.40533 135.108 12.0187 134.212 16.264C135.385 13.8533 136.569 12.0933 137.764 10.984C138.959 9.85333 140.271 9.10667 141.7 8.744V10.856C140.164 10.92 138.681 11.9547 137.252 13.96C137.337 15.3467 137.743 16.4987 138.468 17.416C139.215 18.3333 139.919 18.792 140.58 18.792C140.9 18.792 141.593 18.344 142.66 17.448ZM158.983 17.256L159.655 17.8C159.293 18.696 158.717 19.4533 157.927 20.072C157.159 20.6907 156.455 21 155.815 21C155.197 21 154.706 20.7867 154.343 20.36C153.981 19.912 153.799 19.336 153.799 18.632C153.799 17.928 153.917 17.0213 154.151 15.912C153.149 17.4907 152.071 18.728 150.919 19.624C149.767 20.52 148.797 20.968 148.007 20.968C146.813 20.968 146.215 20.2533 146.215 18.824C146.215 17.3947 146.706 15.4747 147.687 13.064C148.69 10.632 149.405 9.24533 149.831 8.904L151.367 9.576C150.493 10.984 149.831 12.3707 149.383 13.736C148.935 15.1013 148.711 16.0187 148.711 16.488C148.711 16.936 148.85 17.2987 149.127 17.576C149.426 17.8533 149.767 17.992 150.151 17.992C151.005 17.992 152.061 17.2133 153.319 15.656C154.599 14.0773 155.901 11.7307 157.223 8.616L158.855 9.352C158.813 9.52267 158.322 10.76 157.383 13.064C156.466 15.368 156.007 16.7547 156.007 17.224C156.007 17.672 156.103 18.0133 156.295 18.248C156.509 18.4827 156.711 18.6 156.903 18.6C157.117 18.6 157.277 18.5893 157.383 18.568C157.49 18.5467 157.597 18.504 157.703 18.44C157.81 18.376 157.895 18.3227 157.959 18.28C158.045 18.2373 158.141 18.1627 158.247 18.056L158.471 17.8C158.535 17.7573 158.621 17.672 158.727 17.544C158.855 17.3947 158.941 17.2987 158.983 17.256Z" fill="white"/>
</svg>
